<?xml version="1.0" encoding="UTF-8"?><svg xmlns="http://www.w3.org/2000/svg" xmlns:xlink="http://www.w3.org/1999/xlink" fill-opacity="1" color-rendering="auto" color-interpolation="auto" text-rendering="auto" stroke="black" stroke-linecap="square" width="1027" stroke-miterlimit="10" shape-rendering="auto" stroke-opacity="1" fill="black" stroke-dasharray="none" font-weight="normal" stroke-width="1" height="442" font-family="'Dialog'" font-style="normal" stroke-linejoin="miter" font-size="12px" stroke-dashoffset="0" image-rendering="auto">
  <!--Generated by ySVG 2.5-->
  <defs id="genericDefs"/>
  <g>
    <defs id="defs1">
      <clipPath clipPathUnits="userSpaceOnUse" id="clipPath1">
        <path d="M0 0 L1027 0 L1027 442 L0 442 L0 0 Z"/>
      </clipPath>
      <clipPath clipPathUnits="userSpaceOnUse" id="clipPath2">
        <path d="M-127 52 L900 52 L900 494 L-127 494 L-127 52 Z"/>
      </clipPath>
    </defs>
    <g fill="white" text-rendering="geometricPrecision" shape-rendering="geometricPrecision" transform="translate(127,-52)" stroke="white">
      <rect x="-127" width="1027" height="442" y="52" clip-path="url(#clipPath2)" stroke="none"/>
    </g>
    <g text-rendering="geometricPrecision" stroke-miterlimit="1.45" shape-rendering="geometricPrecision" transform="matrix(1,0,0,1,127,-52)" stroke-linecap="butt">
      <rect fill="none" x="229" width="207" height="47" y="150" clip-path="url(#clipPath2)"/>
      <text x="257.4531" xml:space="preserve" y="178.2139" clip-path="url(#clipPath2)" font-family="sans-serif" stroke="none">input_constants_wrapper.py</text>
      <rect fill="none" x="229" width="207" height="109.25" y="302" clip-path="url(#clipPath2)"/>
      <text x="287.8164" xml:space="preserve" y="361.3389" clip-path="url(#clipPath2)" font-family="sans-serif" stroke="none">news_crawler.py</text>
      <rect fill="none" x="-111.25" width="113" height="109.25" y="302" clip-path="url(#clipPath2)"/>
      <text x="-79.4326" xml:space="preserve" y="361.3389" clip-path="url(#clipPath2)" font-family="sans-serif" stroke="none">logger.py</text>
      <rect fill="none" x="678" width="207" height="84" y="314.625" clip-path="url(#clipPath2)"/>
      <text x="727.1396" xml:space="preserve" y="361.3389" clip-path="url(#clipPath2)" font-family="sans-serif" stroke="none">corpus_converter.py</text>
      <ellipse rx="44" fill="none" ry="15" clip-path="url(#clipPath2)" cx="240" cy="82"/>
      <text x="211.3154" xml:space="preserve" y="86.7139" clip-path="url(#clipPath2)" font-family="sans-serif" stroke="none">config.json</text>
      <ellipse rx="53.5" fill="none" ry="15" clip-path="url(#clipPath2)" cx="347.5" cy="82"/>
      <text x="298.1436" xml:space="preserve" y="86.7139" clip-path="url(#clipPath2)" font-family="sans-serif" stroke="none">site_schemas.json</text>
      <ellipse rx="28" fill="none" ry="15" clip-path="url(#clipPath2)" cx="434" cy="82"/>
      <text x="409.9854" xml:space="preserve" y="86.7139" clip-path="url(#clipPath2)" font-family="sans-serif" stroke="none">tags.json</text>
      <ellipse rx="44" fill="none" ry="15" clip-path="url(#clipPath2)" cx="333" cy="262"/>
      <text x="296.9766" xml:space="preserve" y="266.7139" clip-path="url(#clipPath2)" font-family="sans-serif" stroke="none">adatobjektum</text>
      <ellipse rx="87" fill="none" ry="17.5" clip-path="url(#clipPath2)" cx="553" cy="332.125"/>
      <text x="475.6416" xml:space="preserve" y="336.8389" clip-path="url(#clipPath2)" font-family="sans-serif" stroke="none">cikket tartalmazó HTML oldal</text>
      <ellipse rx="87" fill="none" ry="17.5" clip-path="url(#clipPath2)" cx="553" cy="374.125"/>
      <text x="482.9746" xml:space="preserve" y="378.8389" clip-path="url(#clipPath2)" font-family="sans-serif" stroke="none">cikk korpusz formátumban</text>
      <ellipse rx="56.5" fill="none" ry="17.5" clip-path="url(#clipPath2)" cx="332.5" cy="461.5"/>
      <text x="309.8242" xml:space="preserve" y="466.2139" clip-path="url(#clipPath2)" font-family="sans-serif" stroke="none"> korpusz</text>
      <ellipse rx="56.5" fill="none" ry="17.5" clip-path="url(#clipPath2)" cx="124.5" cy="393.75"/>
      <text x="89.4727" xml:space="preserve" y="391.1133" clip-path="url(#clipPath2)" font-family="sans-serif" stroke="none">logba írandó </text>
      <text x="106.4854" xml:space="preserve" y="405.8145" clip-path="url(#clipPath2)" font-family="sans-serif" stroke="none">üzenet</text>
      <ellipse rx="56.5" fill="none" ry="17.5" clip-path="url(#clipPath2)" cx="-54.75" cy="461.5"/>
      <text x="-62.7568" xml:space="preserve" y="466.2139" clip-path="url(#clipPath2)" font-family="sans-serif" stroke="none">log</text>
      <ellipse rx="56.5" fill="none" ry="17.5" clip-path="url(#clipPath2)" cx="124.5" cy="356.625"/>
      <text x="82.1484" xml:space="preserve" y="361.3389" clip-path="url(#clipPath2)" font-family="sans-serif" stroke="none">URL ellenőrizve</text>
      <ellipse rx="56.5" fill="none" ry="17.5" clip-path="url(#clipPath2)" cx="124.5" cy="321.625"/>
      <text x="81.8174" xml:space="preserve" y="326.3389" clip-path="url(#clipPath2)" font-family="sans-serif" stroke="none">URL-ellenőrizés</text>
      <path fill="none" d="M240 97 L240 142.0361" clip-path="url(#clipPath2)"/>
      <path d="M240 150.0361 L245 138.0361 L240 141.0361 L235 138.0361 Z" clip-path="url(#clipPath2)" stroke="none"/>
      <path fill="none" d="M347.5 97 L347.5 142.0078" clip-path="url(#clipPath2)"/>
      <path d="M347.5 150.0078 L352.5 138.0078 L347.5 141.0078 L342.5 138.0078 Z" clip-path="url(#clipPath2)" stroke="none"/>
      <path fill="none" d="M434 97 L434 141.9878" clip-path="url(#clipPath2)"/>
      <path d="M434 149.9878 L439 137.9878 L434 140.9878 L429 137.9878 Z" clip-path="url(#clipPath2)" stroke="none"/>
      <path fill="none" d="M332.6328 197 L332.8701 239.0002" clip-path="url(#clipPath2)"/>
      <path d="M332.9153 247 L337.8474 234.972 L332.8644 238.0002 L327.8475 235.0285 Z" clip-path="url(#clipPath2)" stroke="none"/>
      <path fill="none" d="M332.9207 277 L332.8309 294.0001" clip-path="url(#clipPath2)"/>
      <path d="M332.7886 302 L337.852 290.0266 L332.8362 293.0001 L327.8521 289.9738 Z" clip-path="url(#clipPath2)" stroke="none"/>
      <path fill="none" d="M435.9822 328.2674 L459.1497 329.0311" clip-path="url(#clipPath2)"/>
      <path d="M467.1454 329.2947 L455.3166 323.902 L458.1502 328.9982 L454.9871 333.8966 Z" clip-path="url(#clipPath2)" stroke="none"/>
      <path fill="none" d="M640 332.125 L669.9684 332.125" clip-path="url(#clipPath2)"/>
      <path d="M677.9684 332.125 L665.9684 327.125 L668.9684 332.125 L665.9684 337.125 Z" clip-path="url(#clipPath2)" stroke="none"/>
      <path fill="none" d="M677.9966 374.125 L648 374.125" clip-path="url(#clipPath2)"/>
      <path d="M640 374.125 L652 379.125 L649 374.125 L652 369.125 Z" clip-path="url(#clipPath2)" stroke="none"/>
      <path fill="none" d="M466 374.125 L443.9773 374.125" clip-path="url(#clipPath2)"/>
      <path d="M435.9773 374.125 L447.9773 379.125 L444.9773 374.125 L447.9773 369.125 Z" clip-path="url(#clipPath2)" stroke="none"/>
      <path fill="none" d="M332.5 411.25 L332.5 436" clip-path="url(#clipPath2)"/>
      <path d="M332.5 444 L337.5 432 L332.5 435 L327.5 432 Z" clip-path="url(#clipPath2)" stroke="none"/>
      <path fill="none" d="M228.9809 393.75 L189 393.75" clip-path="url(#clipPath2)"/>
      <path d="M181 393.75 L193 398.75 L190 393.75 L193 388.75 Z" clip-path="url(#clipPath2)" stroke="none"/>
      <path fill="none" d="M68.0145 394.1463 L9.7447 394.5552" clip-path="url(#clipPath2)"/>
      <path d="M1.7449 394.6113 L13.7796 399.527 L10.7446 394.5482 L13.7095 389.5273 Z" clip-path="url(#clipPath2)" stroke="none"/>
      <path fill="none" d="M-54.75 411.25 L-54.75 436" clip-path="url(#clipPath2)"/>
      <path d="M-54.75 444 L-49.75 432 L-54.75 435 L-59.75 432 Z" clip-path="url(#clipPath2)" stroke="none"/>
      <path fill="none" d="M-54.75 444 L-54.75 419.2244" clip-path="url(#clipPath2)"/>
      <path d="M-54.75 411.2244 L-59.75 423.2244 L-54.75 420.2244 L-49.75 423.2244 Z" clip-path="url(#clipPath2)" stroke="none"/>
      <path fill="none" d="M1.75 356.625 L60 356.625" clip-path="url(#clipPath2)"/>
      <path d="M68 356.625 L56 351.625 L59 356.625 L56 361.625 Z" clip-path="url(#clipPath2)" stroke="none"/>
      <path fill="none" d="M181 356.625 L220.9531 356.625" clip-path="url(#clipPath2)"/>
      <path d="M228.9531 356.625 L216.9531 351.625 L219.9531 356.625 L216.9531 361.625 Z" clip-path="url(#clipPath2)" stroke="none"/>
      <path fill="none" d="M229.0107 321.625 L189 321.625" clip-path="url(#clipPath2)"/>
      <path d="M181 321.625 L193 326.625 L190 321.625 L193 316.625 Z" clip-path="url(#clipPath2)" stroke="none"/>
      <path fill="none" d="M68 321.625 L9.7264 321.625" clip-path="url(#clipPath2)"/>
      <path d="M1.7264 321.625 L13.7264 326.625 L10.7264 321.625 L13.7264 316.625 Z" clip-path="url(#clipPath2)" stroke="none"/>
    </g>
  </g>
</svg>
